#!OML:ASF I:\Actors\actors\Patient Classification 1\Patient 1\Session 1\Subject1.ASF
:FULLY-SPECIFIED
:DEGREES
234
root 0.480358 17.6482 8.68704 16.4589 -10.9877 -15.215
lowerback 3.20482 2.80298 3.56183
upperback -0.00136653 3.75766 -6.18543
thorax -1.14812 1.85107 -8.6357
lowerneck -0.408159 2.08513 3.03256
upperneck 20.722 -0.0461521 14.7954
head 6.35672 1.20814 4.2596
rclavicle -2.38542e-015 -6.36111e-015
rhumerus -56.3244 18.2827 -99.1511
rradius 55.9641
rwrist -0.452275
rhand 8.36024 -32.5166
rfingers 7.12502
rthumb 33.5695 -59.3949
lclavicle -2.38542e-015 -6.36111e-015
lhumerus -11.2737 -0.272129 72.12
lradius 20.0641
lwrist -6.6845
lhand -15.5201 -7.54528
lfingers 7.12502
lthumb 10.6631 22.1641
rfemur -12.8692 24.5962 26.6796
rtibia 5.57645
rfoot -8.51835 -14.4927
rtoes -7.27072
lfemur 1.34582 -42.4731 -4.21749
ltibia -4.1645
lfoot -38.7257 57.2563
ltoes 24.9589
235
root 0.479381 17.6529 8.69679 16.1115 -9.71572 -15.6715
lowerback 3.5117 2.89795 4.20924
upperback 0.115822 3.92167 -6.03873
thorax -1.13639 1.93573 -8.87324
lowerneck -0.347716 1.73108 2.87927
upperneck 20.6407 -0.537315 15.022
head 6.3499 0.974257 4.33369
rclavicle -2.62396e-014 -6.36111e-014
rhumerus -56.8373 20.5211 -99.3684
rradius 57.491
rwrist -1.24334
rhand 8.08359 -32.7288
rfingers 7.12502
rthumb 33.3065 -59.6639
lclavicle -2.62396e-014 -6.36111e-014
lhumerus -11.4123 1.38828 70.8215
lradius 19.6283
lwrist -8.4571
lhand -16.2369 -7.85411
lfingers 7.12502
lthumb 9.97156 21.8897
rfemur -12.1946 24.482 27.5901
rtibia 5.40432
rfoot -8.71623 -15.4093
rtoes -6.97392
lfemur 1.19682 -42.1636 -3.27121
ltibia -4.22962
lfoot -35.9328 56.6784
ltoes 23.1755
236
root 0.472823 17.6605 8.69857 15.989 -8.73512 -15.8953
lowerback 3.75544 3.00567 4.39636
upperback 0.0175731 4.07796 -5.95208
thorax -1.34004 2.00315 -8.91278
lowerneck -0.233571 1.40168 2.49931
upperneck 20.6309 -1.02171 15.4526
head 6.35493 0.741592 4.51698
rclavicle -4.53229e-014 4.13472e-014
rhumerus -57.4411 22.7626 -99.6208
rradius 59.1027
rwrist -1.83979
rhand 7.73435 -33.2315
rfingers 7.12502
rthumb 32.9744 -60.2372
lclavicle -4.53229e-014 4.13472e-014
lhumerus -11.9923 2.54714 69.4094
lradius 19.4204
lwrist -9.67679
lhand -17.0361 -7.86623
lfingers 7.12502
lthumb 9.20055 21.913
rfemur -12.0611 24.5391 28.0118
rtibia 5.47751
rfoot -8.92835 -16.2338
rtoes -6.40321
lfemur 0.634942 -41.8611 -2.36724
ltibia -4.17762
lfoot -33.8609 56.1519
ltoes 21.7692
237
root 0.471377 17.6589 8.74503 16.1535 -7.34673 -16.1321
lowerback 2.93888 3.00801 4.91813
upperback -0.00387352 4.09018 -5.86683
thorax -0.871385 2.02681 -9.06971
lowerneck -0.0592082 1.09568 2.22461
upperneck 20.5741 -1.45971 15.8161
head 6.33572 0.528643 4.66108
rclavicle -5.56597e-015 -1.90833e-014
rhumerus -57.9841 25.0209 -99.8329
rradius 60.7409
rwrist -2.41091
rhand 7.46281 -33.9927
rfingers 7.12502
rthumb 32.7161 -61.0523
lclavicle -5.56597e-015 -1.90833e-014
lhumerus -12.6928 2.62098 68.0447
lradius 19.6311
lwrist -10.108
lhand -17.3074 -5.50808
lfingers 7.12502
lthumb 8.93869 24.2826
rfemur -11.7699 23.7099 28.5823
rtibia 5.07112
rfoot -9.11409 -16.5562
rtoes -6.13255
lfemur -0.00138034 -41.8899 -1.51896
ltibia -4.19853
lfoot -31.6675 55.7723
ltoes 19.9726
238
root 0.46703 17.6652 8.76715 16.2183 -6.38075 -15.7422
lowerback 2.54884 3.05171 4.53581
upperback -0.100615 4.12546 -5.94592
thorax -0.76757 2.04733 -8.91008
lowerneck -0.294835 0.783632 1.86262
upperneck 21.0245 -2.02716 16.2928
head 6.56845 0.300683 4.87448
rclavicle -5.24792e-014 8.26944e-014
rhumerus -58.3716 27.2549 -99.8904
rradius 62.3602
rwrist -3.2206
rhand 7.84446 -34.5106
rfingers 7.12502
rthumb 33.0791 -61.4941
lclavicle -5.24792e-014 8.26944e-014
lhumerus -13.3396 2.71068 66.616
lradius 19.5851
lwrist -10.366
lhand -17.5951 -4.78656
lfingers 7.12502
lthumb 8.66105 25.0158
rfemur -11.7759 23.3723 28.2335
rtibia 4.91518
rfoot -9.34994 -17.1483
rtoes -5.55877
lfemur -0.769714 -42.106 -1.35466
ltibia -4.03065
lfoot -30.2198 55.5056
ltoes 18.7915
239
root 0.444275 17.6757 8.78416 16.1709 -5.67259 -15.3109
lowerback 2.29705 3.16926 3.73345
upperback -0.152474 4.25272 -5.98031
thorax -0.712494 2.11397 -8.46544
lowerneck -0.232436 0.524525 1.82815
upperneck 21.0631 -2.39855 16.4145
head 6.6018 0.131584 4.90417
rclavicle -2.54444e-014 -7.31528e-014
rhumerus -58.5112 29.2693 -99.632
rradius 64.0117
rwrist -4.25469
rhand 8.23365 -34.4662
rfingers 7.12502
rthumb 33.4491 -61.3705
lclavicle -2.54444e-014 -7.31528e-014
lhumerus -13.9607 2.6785 65.2753
lradius 19.5256
lwrist -10.4301
lhand -17.7927 -4.83803
lfingers 7.12502
lthumb 8.47036 24.9721
rfemur -11.7591 23.8036 27.7954
rtibia 4.90358
rfoot -9.66289 -18.2356
rtoes -4.48176
lfemur -1.2714 -42.4912 -1.29477
ltibia -3.98708
lfoot -29.3591 55.4095
ltoes 18.0559
240
root 0.42618 17.6823 8.79919 16.0545 -4.93634 -15.2078
lowerback 2.11287 3.30463 3.39649
upperback -0.106671 4.42528 -5.90748
thorax -0.563318 2.2078 -8.17715
lowerneck -0.495619 0.217769 1.49035
upperneck 21.3005 -2.89818 16.6926
head 6.77117 -0.0847137 5.04181
rclavicle 4.77083e-015 -6.36111e-015
rhumerus -58.4107 31.2792 -99.123
rradius 65.7449
rwrist -5.54688
rhand 7.46317 -34.4019
rfingers 7.12502
rthumb 32.7165 -61.4615
lclavicle 4.77083e-015 -6.36111e-015
lhumerus -14.4971 2.63768 64.1115
lradius 19.5107
lwrist -10.5796
lhand -17.7667 -4.85311
lfingers 7.12502
lthumb 8.49544 24.956
rfemur -11.6033 24.0513 27.821
rtibia 4.92321
rfoot -9.95214 -19.0762
rtoes -3.53466
lfemur -1.5834 -42.6149 -0.994804
ltibia -3.98808
lfoot -28.2914 55.1204
ltoes 17.1224
241
root 0.419032 17.6858 8.80954 15.9182 -4.14323 -15.2805
lowerback 2.10435 3.40313 3.54204
upperback -0.103926 4.56255 -5.85069
thorax -0.526152 2.27835 -8.19971
lowerneck -1.20358 -0.0538765 0.795378
upperneck 22.1845 -3.51225 17.2959
head 7.25562 -0.301883 5.37574
rclavicle -1.11319e-014 -9.54166e-015
rhumerus -58.1615 33.2372 -98.584
rradius 67.3438
rwrist -6.74388
rhand 6.86008 -34.4855
rfingers 7.12502
rthumb 32.1425 -61.6628
lclavicle -1.11319e-014 -9.54166e-015
lhumerus -15.127 2.72422 62.8857
lradius 19.4063
lwrist -10.7164
lhand -17.6527 -5.79866
lfingers 7.12502
lthumb 8.60548 24.006
rfemur -11.4282 23.841 28.0919
rtibia 4.98276
rfoot -10.1823 -19.4993
rtoes -3.02109
lfemur -1.91079 -42.4534 -0.549373
ltibia -3.93734
lfoot -26.8238 54.6395
ltoes 15.8214
242
root 0.411658 17.6896 8.81346 15.6919 -3.50266 -15.1791
lowerback 2.34177 3.51146 3.51128
upperback -0.154513 4.70731 -5.85857
thorax -0.689305 2.34476 -8.21073
lowerneck -0.867725 -0.360555 0.855933
upperneck 21.8226 -3.85241 17.2601
head 7.10659 -0.494937 5.31687
rclavicle 3.73715e-014 4.77083e-014
rhumerus -57.6934 34.9804 -97.922
rradius 68.6909
rwrist -7.61003
rhand 7.03184 -34.4041
rfingers 7.12502
rthumb 32.306 -61.5482
lclavicle 3.73715e-014 4.77083e-014
lhumerus -15.8033 2.22759 61.8497
lradius 19.3455
lwrist -10.3316
lhand -17.7624 -6.10462
lfingers 7.12502
lthumb 8.49961 23.7043
rfemur -11.2436 23.5972 28.148
rtibia 5.09277
rfoot -10.3976 -19.8513
rtoes -2.61131
lfemur -2.14772 -42.246 -0.399744
ltibia -3.84843
lfoot -25.3891 54.1594
ltoes 14.5598
243
root 0.40988 17.6903 8.80177 15.3991 -3.16608 -14.6246
lowerback 2.85873 3.67502 3.03008
upperback -0.233807 4.90721 -6.0161
thorax -1.05443 2.43305 -8.14851
lowerneck -0.897317 -0.609097 0.434137
upperneck 21.8887 -4.27968 17.8293
head 7.18817 -0.681902 5.56775
rclavicle 6.36111e-014 -9.54166e-014
rhumerus -56.9999 36.6366 -97.08
rradius 69.9386
rwrist -8.45092
rhand 7.32521 -34.313
rfingers 7.12502
rthumb 32.5852 -61.3998
lclavicle 6.36111e-014 -9.54166e-014
lhumerus -16.3379 1.61107 61.0333
lradius 19.369
lwrist -10.0342
lhand -17.6123 -5.31048
lfingers 7.12502
lthumb 8.64452 24.4925
rfemur -11.1824 23.4407 27.5624
rtibia 5.28387
rfoot -10.5775 -20.1831
rtoes -2.03549
lfemur -2.41148 -42.0911 -0.87653
ltibia -3.55637
lfoot -24.5174 53.666
ltoes 13.9159
244
root 0.419703 17.6838 8.82572 15.783 -1.97765 -15.1657
lowerback 2.09566 3.68304 4.14788
upperback -0.356256 4.95059 -5.92187
thorax -0.660068 2.46302 -8.6382
lowerneck -0.48106 -0.909358 0.651186
upperneck 21.4065 -4.59329 17.7751
head 6.98286 -0.864147 5.473
rclavicle -1.03368e-014 -6.04305e-014
rhumerus -56.1358 38.3568 -96.1431
rradius 71.1916
rwrist -9.86655
rhand 7.93309 -34.451
rfingers 7.12502
rthumb 33.1634 -61.4166
lclavicle -1.03368e-014 -6.04305e-014
lhumerus -16.8147 1.55879 60.1149
lradius 19.2113
lwrist -10.5151
lhand -17.5062 -5.24294
lfingers 7.12502
lthumb 8.74692 24.5558
rfemur -11.4843 22.4036 28.2478
rtibia 5.17122
rfoot -10.6307 -20.0856
rtoes -1.95837
lfemur -3.73701 -41.2862 0.69547
ltibia -3.31571
lfoot -22.3624 52.5281
ltoes 11.9344
245
root 0.399038 17.6967 8.84943 15.4313 -0.868107 -15.3673
lowerback 2.11227 3.66567 4.42266
upperback -0.288941 4.93921 -5.7871
thorax -0.5904 2.46115 -8.64978
lowerneck -0.560155 -1.24758 0.480109
upperneck 21.54 -5.10962 17.964
head 7.10023 -1.09555 5.54392
rclavicle 3.18055e-014 3.18055e-014
rhumerus -54.9349 39.9992 -94.9185
rradius 72.3599
rwrist -11.867
rhand 8.99501 -34.8319
rfingers 7.12502
rthumb 34.1725 -61.5772
lclavicle 3.18055e-014 3.18055e-014
lhumerus -17.2289 1.83852 59.2344
lradius 18.9903
lwrist -11.2642
lhand -17.3969 -5.26812
lfingers 7.12502
lthumb 8.85238 24.5262
rfemur -10.749 22.7317 28.891
rtibia 4.82208
rfoot -10.9886 -21.3738
rtoes -1.16721
lfemur -3.87768 -40.7353 1.28543
ltibia -3.34915
lfoot -20.287 51.3743
ltoes 9.75781
246
root 0.383657 17.7021 8.85801 15.2298 -0.134062 -15.3286
lowerback 2.19292 3.7621 4.45514
upperback -0.29623 5.07149 -5.75177
thorax -0.61963 2.52661 -8.63678
lowerneck -0.682171 -1.61994 0.24361
upperneck 21.6882 -5.67495 18.1511
head 7.23906 -1.35198 5.62219
rclavicle 2.46493e-014 7.63333e-014
rhumerus -53.4635 41.4899 -93.4572
rradius 73.2828
rwrist -13.5925
rhand 9.99827 -35.0819
rfingers 7.12502
rthumb 35.1247 -61.6088
lclavicle 2.46493e-014 7.63333e-014
lhumerus -17.6128 2.42887 58.4651
lradius 18.8255
lwrist -12.3038
lhand -17.2035 -5.47119
lfingers 7.12502
lthumb 9.03901 24.3151
rfemur -10.4117 22.9836 29.068
rtibia 4.69414
rfoot -11.3319 -22.283
rtoes -0.403786
lfemur -4.13021 -40.5 1.57343
ltibia -3.30668
lfoot -19.1421 50.6609
ltoes 8.41989
247
root 0.37553 17.7006 8.86385 15.1393 0.555253 -15.1483
lowerback 2.16976 3.86451 4.46037
upperback -0.329868 5.2085 -5.74631
thorax -0.616766 2.59515 -8.63322
lowerneck -0.799694 -2.00006 -0.0906505
upperneck 21.8067 -6.25041 18.391
head 7.37483 -1.61877 5.73351
rclavicle -2.46493e-014 -2.22639e-014
rhumerus -51.9301 43.0461 -91.9379
rradius 73.9975
rwrist -14.8803
rhand 10.5243 -35.0458
rfingers 7.12502
rthumb 35.6235 -61.4539
lclavicle -2.46493e-014 -2.22639e-014
lhumerus -18.1193 2.55489 58.0305
lradius 19.2036
lwrist -12.8038
lhand -16.4073 -3.32209
lfingers 7.12502
lthumb 9.80725 26.4295
rfemur -10.2606 22.9837 29.0013
rtibia 4.60217
rfoot -11.5488 -22.9539
rtoes -0.0628305
lfemur -4.56308 -40.3178 1.74537
ltibia -3.19682
lfoot -18.2288 50.004
ltoes 7.2658
